<svg xmlns="http://www.w3.org/2000/svg" width="256" height="256" viewBox="0 0 256 256" fill="none">
  <rect width="256" height="256" rx="48" fill="#0E639C"/>
  <g transform="translate(32,32)">
    <path d="M160 64c0 35.346-28.654 64-64 64S32 99.346 32 64 60.654 0 96 0s64 28.654 64 64z" fill="#1B9AF7"/>
    <path d="M96 20c24.301 0 44 19.699 44 44s-19.699 44-44 44S52 88.301 52 64 71.699 20 96 20z" fill="#FFFFFF" opacity="0.9"/>
    <path d="M96 44c11.046 0 20 8.954 20 20s-8.954 20-20 20-20-8.954-20-20 8.954-20 20-20z" fill="#0E639C"/>
  </g>
  <path d="M48 208h160" stroke="#FFFFFF" stroke-width="12" stroke-linecap="round" opacity="0.9"/>
</svg>
